# xmcd
# 
# Track frame offsets:
#     150
#     39531
#     80002
#     126589
#     146072
#     205941
#     243726
#     266010
# 
# Disc length: 4241
# 
# Revision: 1
# Processed by: cddbd v1.5.2PL0 Copyright (c) Steve Scherf et al.
# Submitted via: BonkEnc v1.0.8
# 
DISCID=7e108f08
DTITLE=Donna Leon - Lasset die Kinder zu mir kommen CD6v8
DYEAR=2008
DGENRE=Hörbuch
TTITLE0=40 Lasset die Kinder zu mir kommen
TTITLE1=41 Lasset die Kinder zu mir kommen
TTITLE2=42 Lasset die Kinder zu mir kommen
TTITLE3=43 Lasset die Kinder zu mir kommen
TTITLE4=44 Lasset die Kinder zu mir kommen
TTITLE5=45 Lasset die Kinder zu mir kommen
TTITLE6=46 Lasset die Kinder zu mir kommen
TTITLE7=47 Lasset die Kinder zu mir kommen
EXTD=gelesen von Jochen Striebeck
EXTT0=
EXTT1=
EXTT2=
EXTT3=
EXTT4=
EXTT5=
EXTT6=
EXTT7=
PLAYORDER=
